# xmcd
#
# Track frame offsets: 
#        150
#        16695
#        32092
#        48237
#        64002
#        79088
#        96958
#        114349
#        131316
#        148632
#        167353
#        183982
#        201099
#        217805
#
# Disc length: 3117 seconds
#
# Revision: 0
# Processed by: cddbd v1.5.2PL0 Copyright (c) Steve Scherf et al.
# Submitted via: ExactAudioCopy v0.99pb4
#
DISCID=ac0c2b0e
DTITLE=มนต์สิทธิ์ คำสร้อย - มนต์สิทธิ์ฮิตตลอด ชุดที่2
DYEAR=2008
DGENRE=Country
TTITLE0=สั่งนาง
TTITLE1=ในฝัน
TTITLE2=จดหมายผิดซอง
TTITLE3=ช้ำรักจากสกล
TTITLE4=พะยอมบ้านนา
TTITLE5=คิดถึงจังเลย
TTITLE6=ร้องไห้ใกล้หนองหาน
TTITLE7=คนชื่อเดือน
TTITLE8=นางลวง
TTITLE9=อกหักตอนพักยก
TTITLE10=สงสารเมียเขา
TTITLE11=หัวใจร้องไห้
TTITLE12=ราคาคนจน
TTITLE13=ดอกไม้ให้คุณ
EXTD=
EXTT0=
EXTT1=
EXTT2=
EXTT3=
EXTT4=
EXTT5=
EXTT6=
EXTT7=
EXTT8=
EXTT9=
EXTT10=
EXTT11=
EXTT12=
EXTT13=
PLAYORDER=
